<?xml version="1.0" standalone="no"?>
<!DOCTYPE svg PUBLIC "-//W3C//DTD SVG 20010904//EN"
 "http://www.w3.org/TR/2001/REC-SVG-20010904/DTD/svg10.dtd">
<svg version="1.0" xmlns="http://www.w3.org/2000/svg"
 width="260.000000pt" height="260.000000pt" viewBox="0 0 260.000000 260.000000"
 preserveAspectRatio="xMidYMid meet">
<metadata>
Created by potrace 1.11, written by Peter Selinger 2001-2013
</metadata>
<g transform="translate(0.000000,260.000000) scale(0.100000,-0.100000)"
fill="#000000" stroke="none">
<path d="M1779 2577 c-24 -13 -62 -46 -84 -74 -44 -55 -49 -58 -505 -270 -134
-63 -247 -118 -250 -122 -3 -5 -20 -16 -38 -25 -62 -32 -185 -119 -222 -157
-74 -77 -138 -233 -165 -405 -14 -88 -14 -412 0 -494 42 -250 42 -248 66 -345
29 -113 85 -260 126 -327 70 -117 211 -236 357 -303 100 -46 164 -59 256 -52
106 8 173 39 249 117 101 102 148 218 207 510 14 69 27 132 29 140 1 8 12 74
23 145 51 323 50 536 -3 717 -8 29 -10 50 -4 53 5 4 19 25 30 47 43 84 16 179
-63 219 -49 25 -91 28 -145 10 -37 -12 -48 -11 -115 9 -59 19 -102 24 -223 27
-132 3 -152 6 -169 23 -19 19 -19 20 65 59 75 35 407 186 435 197 6 3 23 -14
39 -36 43 -62 102 -92 179 -92 148 0 237 88 233 232 -3 77 -26 131 -73 167
-74 56 -163 68 -235 30z m-921 -646 c8 -5 15 -26 16 -47 1 -34 -5 -45 -56
-100 -68 -72 -89 -116 -77 -160 26 -94 143 -103 203 -15 14 20 26 43 26 50 0
9 12 11 48 7 111 -15 108 -13 104 -55 -3 -33 1 -43 29 -69 28 -27 31 -34 22
-54 -9 -20 -107 -145 -124 -158 -4 -3 -18 -23 -33 -44 -37 -55 -36 -107 5
-143 78 -70 104 -54 233 139 102 154 114 181 122 273 1 17 3 35 3 40 1 6 20 9
45 7 l43 -4 -4 -42 c-6 -52 17 -103 53 -116 84 -32 147 10 180 119 32 110 60
96 85 -46 13 -73 17 -136 14 -248 -2 -82 -6 -159 -8 -170 -3 -11 -8 -45 -11
-75 -4 -30 -11 -77 -16 -105 -5 -27 -11 -66 -14 -85 -24 -176 -94 -458 -135
-546 -38 -82 -118 -166 -190 -201 -45 -22 -68 -27 -126 -27 -82 1 -213 42
-301 95 -113 68 -227 205 -286 344 -29 68 -80 245 -93 320 -19 106 -25 149
-30 200 -4 33 -9 74 -11 90 -19 117 -7 348 25 490 38 163 117 293 204 330 38
17 38 17 55 6z m683 -99 c-9 -26 -16 -48 -17 -50 -2 -3 -132 17 -157 24 -13 4
-17 14 -15 37 l3 32 72 0 c40 0 75 3 78 6 3 4 16 4 29 2 23 -5 23 -5 7 -51z
m-677 -171 c9 -7 16 -19 16 -27 0 -17 -28 -44 -45 -44 -18 0 -45 27 -45 45 0
19 27 44 44 41 8 -1 21 -8 30 -15z m717 -111 c33 -18 21 -67 -19 -75 -40 -7
-62 54 -28 77 15 10 24 10 47 -2z"/>
<path d="M1135 711 c-46 -19 -91 -104 -81 -153 20 -102 152 -176 248 -139 13
5 37 26 53 47 60 78 24 184 -78 233 -44 21 -106 26 -142 12z"/>
</g>
</svg>
