<?xml version="1.0" standalone="no"?>
<!DOCTYPE svg PUBLIC "-//W3C//DTD SVG 20010904//EN"
 "http://www.w3.org/TR/2001/REC-SVG-20010904/DTD/svg10.dtd">
<svg version="1.0" xmlns="http://www.w3.org/2000/svg"
 width="260.000000pt" height="260.000000pt" viewBox="0 0 260.000000 260.000000"
 preserveAspectRatio="xMidYMid meet">
<metadata>
Created by potrace 1.11, written by Peter Selinger 2001-2013
</metadata>
<g transform="translate(0.000000,260.000000) scale(0.100000,-0.100000)"
fill="#000000" stroke="none">
<path d="M1835 2567 c-27 -13 -68 -43 -90 -67 -22 -23 -47 -49 -56 -57 -16
-15 -230 -111 -444 -200 -60 -25 -123 -51 -140 -58 -16 -6 -57 -22 -90 -35
-33 -13 -67 -29 -75 -35 -8 -7 -42 -27 -75 -44 -205 -108 -281 -174 -343 -297
-84 -168 -113 -330 -108 -609 2 -104 7 -203 10 -220 3 -16 13 -66 22 -110 42
-215 143 -444 239 -541 164 -166 438 -284 657 -284 114 0 245 38 313 89 60 46
137 135 165 191 56 112 159 488 186 680 18 129 21 188 18 290 -4 159 -21 269
-54 354 -9 25 -8 33 13 55 65 72 63 175 -5 238 -55 52 -151 69 -221 40 -31
-13 -43 -14 -86 -2 -28 7 -51 11 -51 8 0 -3 -6 -1 -12 5 -21 17 -75 23 -253
28 -159 4 -171 6 -192 27 l-22 22 267 107 267 107 15 -22 c55 -79 134 -120
230 -121 161 0 265 82 278 219 13 146 -87 252 -246 262 -56 3 -75 0 -117 -20z
m-985 -703 c0 -39 -5 -47 -66 -105 -36 -35 -72 -76 -80 -91 -46 -88 29 -180
132 -162 37 6 94 52 119 95 l20 34 65 -7 c106 -12 106 -12 102 -56 -4 -36 0
-42 37 -72 38 -31 40 -34 27 -59 -8 -14 -55 -69 -104 -123 -103 -109 -114
-127 -114 -175 0 -56 73 -119 127 -109 52 10 64 18 102 73 21 31 74 105 119
165 84 112 102 151 105 228 3 59 7 69 27 65 9 -2 32 -4 50 -4 33 -1 33 -1 29
-43 -9 -86 38 -138 123 -138 23 0 54 7 70 15 33 17 73 81 90 142 12 46 41 71
58 50 6 -7 19 -48 30 -92 18 -69 20 -105 17 -270 -2 -104 -7 -208 -10 -230
-46 -294 -105 -527 -176 -683 -37 -83 -122 -168 -212 -212 -87 -43 -191 -51
-318 -25 -201 40 -326 105 -458 235 -132 131 -223 368 -266 694 -12 94 -13
343 -1 383 3 10 8 38 11 63 7 53 30 145 52 209 33 99 138 222 213 251 59 23
80 11 80 -46z m794 -32 c-8 -15 -14 -39 -14 -55 0 -24 -3 -27 -27 -22 -16 2
-53 8 -84 11 -90 10 -121 18 -133 37 -8 12 -8 22 0 35 9 14 27 17 107 17 53 0
98 3 101 6 3 3 19 4 35 1 28 -4 28 -5 15 -30z m-812 -194 c24 -20 28 -44 12
-67 -22 -30 -69 -28 -90 4 -15 23 -15 27 0 50 18 27 52 33 78 13z m876 -130
c24 -31 23 -57 -2 -74 -53 -34 -114 12 -81 62 17 26 65 33 83 12z"/>
<path d="M1191 819 c-57 -12 -80 -31 -107 -86 -43 -86 -12 -159 87 -213 64
-34 149 -41 198 -16 63 33 103 123 81 181 -14 37 -75 94 -122 115 -54 23 -93
29 -137 19z"/>
</g>
</svg>
